<?xml version="1.0" encoding="UTF-8" standalone="no"?>
<svg width="112px" height="28px" viewBox="0 0 112 28" version="1.1" xmlns="http://www.w3.org/2000/svg" xmlns:xlink="http://www.w3.org/1999/xlink" xmlns:sketch="http://www.bohemiancoding.com/sketch/ns">
    <title>position</title>
    <description>Created with Sketch (http://www.bohemiancoding.com/sketch)</description>
    <defs></defs>
    <g id="Page-1" stroke="none" stroke-width="1" fill="none" fill-rule="evenodd" sketch:type="MSPage">
        <path d="M7.99253976,5 C6.33980569,5 5,6.35292554 5,7.99253976 L5,20.0074602 C5,21.6601943 6.35292554,23 7.99253976,23 L20.0074602,23 C21.6601943,23 23,21.6470745 23,20.0074602 L23,7.99253976 C23,6.33980569 21.6470745,5 20.0074602,5 L7.99253976,5 Z M35.9925398,5 C34.3398057,5 33,6.35292554 33,7.99253976 L33,20.0074602 C33,21.6601943 34.3529255,23 35.9925398,23 L48.0074602,23 C49.6601943,23 51,21.6470745 51,20.0074602 L51,7.99253976 C51,6.33980569 49.6470745,5 48.0074602,5 L35.9925398,5 Z M63.9925398,5 C62.3398057,5 61,6.35292554 61,7.99253976 L61,20.0074602 C61,21.6601943 62.3529255,23 63.9925398,23 L76.0074602,23 C77.6601943,23 79,21.6470745 79,20.0074602 L79,7.99253976 C79,6.33980569 77.6470745,5 76.0074602,5 L63.9925398,5 Z M91.9925398,5 C90.3398057,5 89,6.35292554 89,7.99253976 L89,20.0074602 C89,21.6601943 90.3529255,23 91.9925398,23 L104.00746,23 C105.660194,23 107,21.6470745 107,20.0074602 L107,7.99253976 C107,6.33980569 105.647074,5 104.00746,5 L91.9925398,5 Z M91.9925398,5" id="Squares" fill-opacity="0.203498392" fill="#FFFFFF" sketch:type="MSShapeGroup"></path>
        <path d="M6.99508929,5 C5.8932319,5 5,5.88772964 5,7 C5,8.1045695 5.8926228,9 6.99508929,9 L21.0049107,9 C22.1067681,9 23,8.11227036 23,7 C23,5.8954305 22.1073772,5 21.0049107,5 L6.99508929,5 Z M49,5 C47.8954305,5 47,5.8926228 47,6.99508929 L47,21.0049107 C47,22.1067681 47.8877296,23 49,23 C50.1045695,23 51,22.1073772 51,21.0049107 L51,6.99508929 C51,5.8932319 50.1122704,5 49,5 Z M62.9950893,19 C61.8932319,19 61,19.8877296 61,21 C61,22.1045695 61.8926228,23 62.9950893,23 L77.0049107,23 C78.1067681,23 79,22.1122704 79,21 C79,19.8954305 78.1073772,19 77.0049107,19 L62.9950893,19 Z M91,5 C89.8954305,5 89,5.8926228 89,6.99508929 L89,21.0049107 C89,22.1067681 89.8877296,23 91,23 C92.1045695,23 93,22.1073772 93,21.0049107 L93,6.99508929 C93,5.8932319 92.1122704,5 91,5 Z M91,5" id="Bars" fill="#FFFFFF" sketch:type="MSShapeGroup"></path>
    </g>
</svg>