<?xml version="1.0" encoding="UTF-8" standalone="no"?>
<svg width="16px" height="16px" viewBox="0 0 16 16" version="1.1" xmlns="http://www.w3.org/2000/svg" xmlns:xlink="http://www.w3.org/1999/xlink" xmlns:sketch="http://www.bohemiancoding.com/sketch/ns">
    <title>pause</title>
    <description>Created with Sketch (http://www.bohemiancoding.com/sketch)</description>
    <defs></defs>
    <g id="Page-1" stroke="none" stroke-width="1" fill="none" fill-rule="evenodd" sketch:type="MSPage">
        <path d="M2.99980749,2 C2.44762906,2 2,2.45576096 2,3.00247329 L2,12.9975267 C2,13.5511774 2.44371665,14 2.99980749,14 L6.00019251,14 C6.55237094,14 7,13.544239 7,12.9975267 L7,3.00247329 C7,2.44882258 6.55628335,2 6.00019251,2 L2.99980749,2 Z M9.99980749,2 C9.44762906,2 9,2.45576096 9,3.00247329 L9,12.9975267 C9,13.5511774 9.44371665,14 9.99980749,14 L13.0001925,14 C13.5523709,14 14,13.544239 14,12.9975267 L14,3.00247329 C14,2.44882258 13.5562834,2 13.0001925,2 L9.99980749,2 Z" id="Pause" fill="#FFFFFF" sketch:type="MSShapeGroup"></path>
    </g>
</svg>